<svg id="SvgjsSvg1018" width="288" height="288" xmlns="http://www.w3.org/2000/svg" version="1.1" xmlnsXlink="http://www.w3.org/1999/xlink" xmlnsSvgjs="http://svgjs.com/svgjs">
    <defs id="SvgjsDefs1019"></defs>
    <g id="SvgjsG1020">
        <svg xmlns="http://www.w3.org/2000/svg" width="288" height="288" version="1.0" viewBox="0 0 512 512">
            <g transform="matrix(.1 0 0 -.1 0 512)" fill="#9a11e9" class="color000 svgShape">
                <path d="M2414 4719c-89-15-206-57-294-106-113-63-266-215-327-323-201-357-144-788 143-1074 170-171 382-258 624-258 242 0 454 87 624 258 287 286 344 717 143 1074-61 108-214 260-327 323-178 99-393 138-586 106zM832 3880c-197-52-367-201-445-390-37-90-48-150-48-256 0-107 19-192 66-289 82-170 248-304 435-351 85-22 235-21 320 1 148 38 304 148 389 274 135 200 148 465 34 684-51 98-172 219-270 270-146 76-326 97-481 57zM3952 3880c-169-45-336-176-415-327-91-175-103-380-31-561 76-189 254-345 454-397 85-22 235-23 320-1 236 60 424 248 485 485 19 73 22 222 6 296-53 243-247 444-487 505-100 26-233 26-332 0zM1955 2755c-152-34-252-90-366-204-95-95-146-176-188-299l-26-77-3-840c-2-826-2-841 18-873 11-18 34-41 52-52 32-20 53-20 1118-20 1065 0 1086 0 1118 20 18 11 41 34 52 52 20 32 20 47 18 873l-3 840-26 77c-42 123-93 204-188 299-95 95-176 146-299 188l-77 26-570 2c-451 1-583-1-630-12zM642 2379c-287-37-523-241-614-529-23-75-23-77-23-595l0-520 23-57c47-117 144-213 260-260 55-22 67-23 434-26l377-3-12 33c-15 44-23 1572-8 1708 6 52 18 122 27 155 9 33 19 70 21 83l5 22-213-1c-118-1-243-5-277-10zM3993 2368c2-13 12-50 21-83 9-33 21-103 27-155 15-136 7-1664-8-1708l-12-33 377 3c367 3 379 4 434 26 116 47 213 143 260 260l23 57 0 520c0 519 0 520-24 595-75 240-244 418-471 495-101 34-203 45-433 45l-199 0 5-22z" fill="#9a11e9" class="color000 svgShape"></path>
            </g>
        </svg>
    </g>
</svg>