<?xml version="1.0" standalone="no"?>
<!DOCTYPE svg PUBLIC "-//W3C//DTD SVG 20010904//EN"
 "http://www.w3.org/TR/2001/REC-SVG-20010904/DTD/svg10.dtd">
<svg version="1.0" xmlns="http://www.w3.org/2000/svg"
 width="65.000000pt" height="62.000000pt" viewBox="0 0 65.000000 62.000000"
 preserveAspectRatio="xMidYMid meet">

<g transform="translate(0.000000,62.000000) scale(0.100000,-0.100000)"
fill="#000000" stroke="none">
<path d="M200 408 c0 -78 4 -99 23 -133 12 -22 36 -47 52 -55 30 -15 118 -21
130 -9 3 4 -5 19 -19 34 -27 29 -46 81 -46 126 0 33 -52 105 -82 114 -63 18
-58 25 -58 -77z"/>
<path d="M400 390 c-11 -11 -20 -31 -20 -44 0 -29 40 -90 62 -94 21 -4 47 35
55 81 10 63 -54 100 -97 57z"/>
</g>
</svg>
