<svg id="SvgjsSvg1001" width="288" height="288" xmlns="http://www.w3.org/2000/svg" version="1.1" xmlnsXlink="http://www.w3.org/1999/xlink" xmlnsSvgjs="http://svgjs.com/svgjs"><defs id="SvgjsDefs1002"></defs><g id="SvgjsG1008"><svg xmlns="http://www.w3.org/2000/svg" width="288" height="288" version="1.0" viewBox="0 0 65 62"><g transform="matrix(.1 0 0 -.1 0 62)" fill="#9a11e9" class="color000 svgShape"><path d="M200 408c0-78 4-99 23-133 12-22 36-47 52-55 30-15 118-21 130-9 3 4-5 19-19 34-27 29-46 81-46 126 0 33-52 105-82 114-63 18-58 25-58-77zM400 390c-11-11-20-31-20-44 0-29 40-90 62-94 21-4 47 35 55 81 10 63-54 100-97 57z" fill="#9a11e9" class="color000 svgShape"></path></g></svg></g></svg>