<?xml version="1.0" standalone="no"?>
<!DOCTYPE svg PUBLIC "-//W3C//DTD SVG 20010904//EN"
 "http://www.w3.org/TR/2001/REC-SVG-20010904/DTD/svg10.dtd">
<svg version="1.0" xmlns="http://www.w3.org/2000/svg"
 width="512.000000pt" height="512.000000pt" viewBox="0 0 512.000000 512.000000"
 preserveAspectRatio="xMidYMid meet">

<g transform="translate(0.000000,512.000000) scale(0.100000,-0.100000)"
fill="#000000" stroke="none">
<path d="M2380 4945 c-293 -47 -576 -227 -747 -476 -83 -121 -153 -299 -178
-454 -44 -272 24 -579 178 -804 174 -253 455 -431 757 -476 244 -38 469 1 692
117 524 274 745 923 494 1454 -118 249 -280 415 -521 534 -218 108 -439 142
-675 105z"/>
<path d="M1596 2389 c-480 -63 -897 -408 -1050 -869 -59 -180 -61 -201 -61
-752 0 -496 0 -507 21 -534 11 -15 33 -37 48 -48 l27 -21 1979 0 1979 0 27 21
c15 11 37 33 48 48 21 27 21 38 21 534 0 453 -2 516 -18 592 -111 519 -481
892 -1007 1016 -69 16 -156 18 -1010 20 -514 1 -966 -2 -1004 -7z"/>
</g>
</svg>
